# xmcd
#
# Track frame offsets: 
#        150
#        29955
#        43602
#        57390
#        69240
#        86315
#        101005
#        114702
#        127482
#        139012
#        156635
#        167562
#        179627
#        194915
#        206230
#        218180
#        233920
#        249402
#        261735
#        272587
#        282555
#        291002
#
# Disc length: 4046 seconds
#
# Revision: 2
# Processed by: cddbd v1.5.2PL0 Copyright (c) Steve Scherf et al.
# Submitted via: ExactAudioCopy v0.95b4
#
DISCID=740fcc16
DTITLE=Ike and Tina Turner - We've Always Had The Blues
DYEAR=2008
DGENRE=R&B
TTITLE0=The Hunter
TTITLE1=You Don't Love Me
TTITLE2=You Got Me Running
TTITLE3=Bold Soul Sister
TTITLE4=I Smell Trouble
TTITLE5=The Things I Used To Do
TTITLE6=Early In The Morning
TTITLE7=You're Still My Baby
TTITLE8=I Know
TTITLE9=I've Been Loving You Too Long
TTITLE10=Mean Old World
TTITLE11=3 O'Clock In The Morning
TTITLE12=Five Long Years
TTITLE13=Dust My Broom
TTITLE14=Grumbling
TTITLE15=I Am A Motherless Child
TTITLE16=Crazy 'bout You Baby
TTITLE17=Reconsider Baby
TTITLE18=Honest I Do
TTITLE19=Please Love Me
TTITLE20=My Babe
TTITLE21=Rock Me Baby
EXTD=
EXTT0=
EXTT1=
EXTT2=
EXTT3=
EXTT4=
EXTT5=
EXTT6=
EXTT7=
EXTT8=
EXTT9=
EXTT10=
EXTT11=
EXTT12=
EXTT13=
EXTT14=
EXTT15=
EXTT16=
EXTT17=
EXTT18=
EXTT19=
EXTT20=
EXTT21=
PLAYORDER=
